<svg width="20" height="20" viewBox="0 0 20 20" fill="none" xmlns="http://www.w3.org/2000/svg">
<path d="M15.8333 19.9993H4.16667C1.86917 19.9993 0 18.1301 0 15.8326V8.1026C0 6.7151 0.686667 5.42343 1.83667 4.64843L7.66917 0.711764C9.085 -0.243236 10.915 -0.243236 12.3308 0.711764L18.1642 4.64843C19.3133 5.42343 20 6.71427 20 8.1026V15.8326C20 18.1301 18.1308 19.9993 15.8333 19.9993ZM10 1.66343C9.51333 1.66343 9.02667 1.80676 8.60167 2.09426L2.76833 6.0301C2.07833 6.4951 1.66667 7.26927 1.66667 8.10177V15.8318C1.66667 17.2101 2.78833 18.3318 4.16667 18.3318H15.8333C17.2117 18.3318 18.3333 17.2101 18.3333 15.8318V8.1026C18.3333 7.2701 17.9217 6.4951 17.2325 6.03093L11.3983 2.09426C10.9733 1.80676 10.4867 1.66343 10 1.66343Z" fill="white"/>
</svg>
