<svg width="25" height="25" viewBox="0 0 25 25" fill="none" xmlns="http://www.w3.org/2000/svg">
<g clip-path="url(#clip0_392_475)">
<path d="M3.125 10.4166C3.125 11.3742 3.3136 12.3224 3.68005 13.207C4.04649 14.0917 4.58359 14.8955 5.26068 15.5726C5.93777 16.2497 6.7416 16.7868 7.62627 17.1533C8.51093 17.5197 9.45911 17.7083 10.4167 17.7083C11.3742 17.7083 12.3224 17.5197 13.2071 17.1533C14.0917 16.7868 14.8956 16.2497 15.5727 15.5726C16.2497 14.8955 16.7869 14.0917 17.1533 13.207C17.5197 12.3224 17.7083 11.3742 17.7083 10.4166C17.7083 9.45908 17.5197 8.5109 17.1533 7.62624C16.7869 6.74157 16.2497 5.93774 15.5727 5.26065C14.8956 4.58356 14.0917 4.04646 13.2071 3.68001C12.3224 3.31357 11.3742 3.12497 10.4167 3.12497C9.45911 3.12497 8.51093 3.31357 7.62627 3.68001C6.7416 4.04646 5.93777 4.58356 5.26068 5.26065C4.58359 5.93774 4.04649 6.74157 3.68005 7.62624C3.3136 8.5109 3.125 9.45908 3.125 10.4166Z" stroke="#878787" stroke-width="2.08333" stroke-linecap="round" stroke-linejoin="round"/>
<path d="M21.875 21.875L15.625 15.625" stroke="#878787" stroke-width="2.08333" stroke-linecap="round" stroke-linejoin="round"/>
</g>
<defs>
<clipPath id="clip0_392_475">
<rect width="25" height="25" fill="white"/>
</clipPath>
</defs>
</svg>
