<svg width="48" height="48" viewBox="0 0 48 48" fill="none" xmlns="http://www.w3.org/2000/svg">
<rect width="48" height="48" rx="5" fill="#E6F7FF"/>
<path d="M35.1202 17.8924C34.8462 17.4873 34.5032 17.1615 34.1156 16.9382C33.728 16.7148 33.3052 16.5994 32.8773 16.6H17.1313L17.0904 16.1788C17.0067 15.3033 16.6652 14.4961 16.1306 13.9102C15.596 13.3243 14.9056 13.0004 14.1901 13H13.9739C13.7156 13 13.4679 13.1264 13.2852 13.3515C13.1026 13.5765 13 13.8817 13 14.2C13 14.5183 13.1026 14.8235 13.2852 15.0485C13.4679 15.2736 13.7156 15.4 13.9739 15.4H14.1901C14.4286 15.4 14.6589 15.5079 14.8371 15.7033C15.0154 15.8986 15.1293 16.1677 15.1572 16.4596L16.4973 30.4996C16.6364 31.9597 17.2058 33.3061 18.0973 34.2832C18.9888 35.2603 20.1405 35.8 21.3336 35.8H31.5041C31.7624 35.8 32.0101 35.6736 32.1927 35.4485C32.3754 35.2235 32.478 34.9183 32.478 34.6C32.478 34.2817 32.3754 33.9765 32.1927 33.7515C32.0101 33.5264 31.7624 33.4 31.5041 33.4H21.3336C20.7309 33.3979 20.1433 33.1661 19.6517 32.7365C19.16 32.3068 18.7882 31.7003 18.5873 31H30.1961C31.3378 31.0001 32.4432 30.5059 33.3192 29.6037C34.1952 28.7016 34.7861 27.4488 34.9887 26.0644L35.7532 20.8396C35.8295 20.3212 35.8123 19.7885 35.7029 19.2792C35.5936 18.7698 35.3946 18.2964 35.1202 17.8924ZM33.8414 20.4136L33.0759 25.6384C32.9543 26.47 32.5992 27.2224 32.0727 27.7638C31.5462 28.3053 30.8819 28.6013 30.1961 28.6H18.2776L17.3611 19H32.8773C33.0203 18.9989 33.1618 19.0367 33.2917 19.1107C33.4216 19.1847 33.5366 19.293 33.6286 19.4279C33.7207 19.5629 33.7875 19.7212 33.8243 19.8915C33.861 20.0619 33.8669 20.2401 33.8414 20.4136Z" fill="#3D5A80"/>
</svg>
