<svg width="48" height="48" viewBox="0 0 48 48" fill="none" xmlns="http://www.w3.org/2000/svg">
<rect width="48" height="48" rx="5" fill="#E6F7FF"/>
<path d="M29.0676 27.2438C29.0676 28.0445 28.8674 28.7972 28.4671 29.5018C28.0827 30.2064 27.5062 30.7989 26.7375 31.2794C25.9849 31.7598 25.0881 32.048 24.0471 32.1441V34.0899H22.4858V32.1441C20.9804 32 19.7633 31.5276 18.8345 30.7269C17.9057 29.9262 17.4413 28.8692 17.4413 27.5561H20.3719C20.4199 28.1806 20.6201 28.7011 20.9724 29.1174C21.3247 29.5178 21.8292 29.774 22.4858 29.8861V24.6014C21.4128 24.3292 20.54 24.0569 19.8674 23.7847C19.1948 23.4964 18.6183 23.048 18.1379 22.4395C17.6735 21.831 17.4413 20.9982 17.4413 19.9413C17.4413 18.6121 17.9057 17.5151 18.8345 16.6504C19.7633 15.7696 20.9804 15.2571 22.4858 15.113V13.1673H24.0471V15.113C25.4564 15.2411 26.5854 15.6895 27.4342 16.4582C28.2989 17.2109 28.7874 18.2518 28.8995 19.581H25.9689C25.9208 19.0845 25.7286 18.6441 25.3923 18.2598C25.056 17.8594 24.6076 17.5872 24.0471 17.4431V22.6317C25.1201 22.8879 25.9929 23.1601 26.6655 23.4484C27.3381 23.7206 27.9066 24.161 28.371 24.7696C28.8354 25.3621 29.0676 26.1868 29.0676 27.2438ZM20.2278 19.7972C20.2278 20.4537 20.4199 20.9662 20.8043 21.3345C21.2046 21.7029 21.7651 21.9991 22.4858 22.2233V17.371C21.7972 17.4511 21.2447 17.6993 20.8283 18.1157C20.4279 18.532 20.2278 19.0925 20.2278 19.7972ZM24.0471 29.8861C24.7518 29.774 25.3043 29.4938 25.7046 29.0454C26.105 28.581 26.3052 28.0285 26.3052 27.3879C26.3052 26.7473 26.105 26.2509 25.7046 25.8986C25.3203 25.5303 24.7678 25.234 24.0471 25.0098V29.8861Z" fill="#3D5A80"/>
</svg>
