<svg width="48" height="48" viewBox="0 0 48 48" fill="none" xmlns="http://www.w3.org/2000/svg">
<rect width="48" height="48" rx="5" fill="#E6F7FF"/>
<g clip-path="url(#clip0_40_4)">
<path d="M34.8696 21.8261C34.8696 21.1342 34.5947 20.4707 34.1055 19.9815C33.6163 19.4922 32.9527 19.2174 32.2609 19.2174H29.6522C29.6522 17.8337 29.1025 16.5066 28.124 15.5281C27.1456 14.5497 25.8185 14 24.4348 14C23.051 14 21.724 14.5497 20.7455 15.5281C19.7671 16.5066 19.2174 17.8337 19.2174 19.2174H16.6087C15.9168 19.2174 15.2533 19.4922 14.7641 19.9815C14.2748 20.4707 14 21.1342 14 21.8261V30.5217C14.0014 31.6744 14.4599 32.7795 15.275 33.5946C16.0901 34.4097 17.1951 34.8682 18.3478 34.8696H30.5217C31.6744 34.8682 32.7795 34.4097 33.5946 33.5946C34.4097 32.7795 34.8682 31.6744 34.8696 30.5217V21.8261ZM20.9565 19.2174C20.9565 18.2949 21.323 17.4102 21.9753 16.7579C22.6276 16.1056 23.5123 15.7391 24.4348 15.7391C25.3573 15.7391 26.242 16.1056 26.8943 16.7579C27.5466 17.4102 27.913 18.2949 27.913 19.2174H20.9565Z" fill="#3D5A80"/>
</g>
<defs>
<clipPath id="clip0_40_4">
<rect width="20.8696" height="20.8696" fill="white" transform="translate(14 14)"/>
</clipPath>
</defs>
</svg>
