<svg width="48" height="48" viewBox="0 0 48 48" fill="none" xmlns="http://www.w3.org/2000/svg">
<rect width="48" height="48" rx="5" fill="#E6F7FF"/>
<g filter="url(#filter0_d_1_656)">
<path d="M24 27.3333C23.3407 27.3333 22.6963 27.1378 22.1481 26.7716C21.5999 26.4053 21.1727 25.8847 20.9204 25.2756C20.6681 24.6665 20.6021 23.9963 20.7307 23.3497C20.8593 22.7031 21.1768 22.1092 21.643 21.643C22.1092 21.1768 22.7031 20.8593 23.3497 20.7307C23.9963 20.6021 24.6665 20.6681 25.2756 20.9204C25.8847 21.1727 26.4053 21.5999 26.7716 22.1481C27.1378 22.6963 27.3333 23.3407 27.3333 24C27.3333 24.8841 26.9821 25.7319 26.357 26.357C25.7319 26.9821 24.8841 27.3333 24 27.3333ZM18.7358 27.3333H14.8333C14.6123 27.3333 14.4004 27.2455 14.2441 27.0893C14.0878 26.933 14 26.721 14 26.5C14.0079 25.3034 14.4431 24.149 15.2271 23.2451C16.0112 22.3411 17.0924 21.747 18.2758 21.57C18.4134 21.5507 18.5535 21.5661 18.6836 21.6148C18.8136 21.6635 18.9294 21.7439 19.0205 21.8487C19.1116 21.9535 19.175 22.0794 19.2051 22.215C19.2351 22.3506 19.2308 22.4915 19.1925 22.625C19.0648 23.0722 19 23.535 19 24C19.0002 24.7415 19.1671 25.4734 19.4883 26.1417C19.5487 26.2685 19.5761 26.4086 19.5679 26.5488C19.5596 26.6891 19.5161 26.825 19.4413 26.9439C19.3664 27.0628 19.2627 27.1608 19.1398 27.2289C19.0169 27.297 18.8788 27.3329 18.7383 27.3333H18.7358ZM28.1667 34H19.8333C19.6123 34 19.4004 33.9122 19.2441 33.7559C19.0878 33.5996 19 33.3877 19 33.1667C19 31.8406 19.5268 30.5688 20.4645 29.6311C21.4021 28.6935 22.6739 28.1667 24 28.1667C25.3261 28.1667 26.5979 28.6935 27.5355 29.6311C28.4732 30.5688 29 31.8406 29 33.1667C29 33.3877 28.9122 33.5996 28.7559 33.7559C28.5996 33.9122 28.3877 34 28.1667 34ZM29 20.6667C28.3407 20.6667 27.6963 20.4712 27.1481 20.1049C26.5999 19.7386 26.1727 19.218 25.9204 18.6089C25.6681 17.9999 25.6021 17.3296 25.7307 16.683C25.8593 16.0364 26.1768 15.4425 26.643 14.9763C27.1092 14.5101 27.7031 14.1927 28.3497 14.0641C28.9963 13.9354 29.6665 14.0014 30.2756 14.2537C30.8847 14.506 31.4053 14.9333 31.7716 15.4814C32.1378 16.0296 32.3333 16.6741 32.3333 17.3333C32.3333 18.2174 31.9821 19.0652 31.357 19.6904C30.7319 20.3155 29.8841 20.6667 29 20.6667ZM19 20.6667C18.3407 20.6667 17.6963 20.4712 17.1481 20.1049C16.5999 19.7386 16.1727 19.218 15.9204 18.6089C15.6681 17.9999 15.6021 17.3296 15.7307 16.683C15.8593 16.0364 16.1768 15.4425 16.643 14.9763C17.1092 14.5101 17.7031 14.1927 18.3497 14.0641C18.9963 13.9354 19.6665 14.0014 20.2756 14.2537C20.8847 14.506 21.4053 14.9333 21.7716 15.4814C22.1378 16.0296 22.3333 16.6741 22.3333 17.3333C22.3333 18.2174 21.9821 19.0652 21.357 19.6904C20.7319 20.3155 19.8841 20.6667 19 20.6667ZM33.1667 27.3333H29.2642C29.1237 27.3329 28.9856 27.297 28.8627 27.2289C28.7398 27.1608 28.6361 27.0628 28.5612 26.9439C28.4864 26.825 28.4429 26.6891 28.4346 26.5488C28.4264 26.4086 28.4538 26.2685 28.5142 26.1417C28.8345 25.4732 29.0005 24.7413 29 24C28.9986 23.5348 28.9324 23.072 28.8033 22.625C28.7648 22.4911 28.7605 22.3498 28.7907 22.2138C28.821 22.0778 28.8848 21.9516 28.9764 21.8467C29.068 21.7417 29.1844 21.6614 29.315 21.6131C29.4457 21.5648 29.5863 21.55 29.7242 21.57C30.9076 21.747 31.9888 22.3411 32.7729 23.2451C33.5569 24.149 33.9921 25.3034 34 26.5C34 26.721 33.9122 26.933 33.7559 27.0893C33.5996 27.2455 33.3877 27.3333 33.1667 27.3333Z" fill="#3D5A80"/>
</g>
<defs>
<filter id="filter0_d_1_656" x="10" y="14" width="28" height="28" filterUnits="userSpaceOnUse" color-interpolation-filters="sRGB">
<feFlood flood-opacity="0" result="BackgroundImageFix"/>
<feColorMatrix in="SourceAlpha" type="matrix" values="0 0 0 0 0 0 0 0 0 0 0 0 0 0 0 0 0 0 127 0" result="hardAlpha"/>
<feOffset dy="4"/>
<feGaussianBlur stdDeviation="2"/>
<feComposite in2="hardAlpha" operator="out"/>
<feColorMatrix type="matrix" values="0 0 0 0 0.239216 0 0 0 0 0.352941 0 0 0 0 0.501961 0 0 0 0.16 0"/>
<feBlend mode="normal" in2="BackgroundImageFix" result="effect1_dropShadow_1_656"/>
<feBlend mode="normal" in="SourceGraphic" in2="effect1_dropShadow_1_656" result="shape"/>
</filter>
</defs>
</svg>
