<svg width="20" height="20" viewBox="0 0 20 20" fill="none" xmlns="http://www.w3.org/2000/svg">
<mask id="mask0_84_10828" style="mask-type:alpha" maskUnits="userSpaceOnUse" x="0" y="0" width="20" height="20">
<rect width="20" height="20" fill="#D9D9D9"/>
</mask>
<g mask="url(#mask0_84_10828)">
<path d="M10 13.3333C11.0417 13.3333 11.9271 12.9688 12.6563 12.2396C13.3854 11.5104 13.75 10.625 13.75 9.58334C13.75 8.54167 13.3854 7.65625 12.6563 6.92709C11.9271 6.19792 11.0417 5.83334 10 5.83334C8.95834 5.83334 8.07293 6.19792 7.34376 6.92709C6.61459 7.65625 6.25001 8.54167 6.25001 9.58334C6.25001 10.625 6.61459 11.5104 7.34376 12.2396C8.07293 12.9688 8.95834 13.3333 10 13.3333ZM10 11.8333C9.37501 11.8333 8.84376 11.6146 8.40626 11.1771C7.96876 10.7396 7.75001 10.2083 7.75001 9.58334C7.75001 8.95834 7.96876 8.42709 8.40626 7.98959C8.84376 7.55209 9.37501 7.33334 10 7.33334C10.625 7.33334 11.1563 7.55209 11.5938 7.98959C12.0313 8.42709 12.25 8.95834 12.25 9.58334C12.25 10.2083 12.0313 10.7396 11.5938 11.1771C11.1563 11.6146 10.625 11.8333 10 11.8333ZM10 15.8333C7.97223 15.8333 6.12501 15.2674 4.45834 14.1354C2.79168 13.0035 1.58334 11.4861 0.833344 9.58334C1.58334 7.68056 2.79168 6.1632 4.45834 5.03125C6.12501 3.89931 7.97223 3.33334 10 3.33334C12.0278 3.33334 13.875 3.89931 15.5417 5.03125C17.2083 6.1632 18.4167 7.68056 19.1667 9.58334C18.4167 11.4861 17.2083 13.0035 15.5417 14.1354C13.875 15.2674 12.0278 15.8333 10 15.8333ZM10 14.1667C11.5695 14.1667 13.0104 13.7535 14.3229 12.9271C15.6354 12.1007 16.6389 10.9861 17.3333 9.58334C16.6389 8.18056 15.6354 7.06597 14.3229 6.23959C13.0104 5.4132 11.5695 5 10 5C8.43057 5 6.98959 5.4132 5.67709 6.23959C4.36459 7.06597 3.36112 8.18056 2.66668 9.58334C3.36112 10.9861 4.36459 12.1007 5.67709 12.9271C6.98959 13.7535 8.43057 14.1667 10 14.1667Z" fill="#1C1B1F" fill-opacity="0.5"/>
</g>
</svg>
