<svg width="139" height="44" viewBox="0 0 139 44" fill="none" xmlns="http://www.w3.org/2000/svg">
<path d="M15.7035 14.2296V20.3295C14.9398 19.48 14.1761 18.8594 13.4171 18.4633C12.6582 18.0671 11.842 17.8666 10.9781 17.8666C9.37435 17.8666 8.07612 18.4156 7.08324 19.5086C6.09046 20.6064 5.5941 22.0335 5.5941 23.7948C5.5941 25.4367 6.10004 26.797 7.11192 27.8805C8.1238 28.964 9.41252 29.5034 10.9781 29.5034C11.842 29.5034 12.6582 29.3029 13.4171 28.9067C14.176 28.5106 14.9397 27.8854 15.7034 27.0262V33.1405C14.8156 33.5653 13.9374 33.8898 13.0591 34.1046C12.1857 34.3194 11.2979 34.4245 10.4053 34.4245C9.28361 34.4245 8.25264 34.2908 7.30754 34.0235C6.36252 33.761 5.48903 33.3552 4.69674 32.8159C3.16934 31.7897 2.00473 30.501 1.20286 28.9449C0.400978 27.3842 0 25.6324 0 23.685C0 22.1195 0.253008 20.6971 0.763702 19.4131C1.26964 18.1291 2.03809 16.9693 3.0643 15.924C4.03325 14.9264 5.12632 14.1818 6.34345 13.6854C7.55581 13.1938 8.91132 12.9456 10.4053 12.9456C11.2979 12.9456 12.1857 13.0506 13.0591 13.2654C13.9374 13.4802 14.8156 13.8048 15.7035 14.2296Z" fill="#193B6D"/>
<path d="M53.2795 33.9091L53.2339 13.2664H58.4131L68.3101 25.7436L68.2513 13.2664H73.7399L73.7855 33.9091H68.2971L58.4697 21.4195L58.5653 33.9091H53.2795Z" fill="#193B6D"/>
<path d="M118.494 33.9091L118.448 13.2664H123.628L133.525 25.7436L133.466 13.2664H138.954L139 33.9091H133.512L123.684 21.4195L123.78 33.9091H118.494Z" fill="#193B6D"/>
<path d="M77.8394 34.0143V13.2664H89.7227V17.8136H83.3517V21.4128H89.3359V25.8632H83.3517V29.4624H89.7227V34.0143H77.8394Z" fill="#193B6D"/>
<path fill-rule="evenodd" clip-rule="evenodd" d="M99.4045 19.5623C100.508 18.4615 101.903 17.9089 103.589 17.9089C105.244 17.9089 106.634 18.4615 107.753 19.5669C108.872 20.6768 109.429 22.0585 109.429 23.7119C109.429 25.3836 108.877 26.77 107.773 27.8706C106.67 28.9668 105.275 29.5148 103.589 29.5148C101.871 29.5148 100.466 28.9714 99.3785 27.8798C98.2907 26.7929 97.7494 25.4021 97.7494 23.7119C97.7494 22.0493 98.3011 20.663 99.4045 19.5623ZM114.245 27.9623C114.813 26.6436 115.099 25.2268 115.099 23.7119C115.099 22.2068 114.813 20.79 114.24 19.4614C113.663 18.1279 112.84 16.9464 111.76 15.9119C110.681 14.8775 109.435 14.0833 108.015 13.5195C106.599 12.9606 105.128 12.6812 103.597 12.6812C102.055 12.6812 100.584 12.9606 99.1783 13.5195C97.7675 14.0833 96.5324 14.8775 95.463 15.9119C94.3534 16.9561 93.5149 18.1426 92.9376 19.4663C92.3652 20.7948 92.079 22.2068 92.079 23.7119C92.079 25.2071 92.3652 26.6191 92.9376 27.9476C93.5149 29.2811 94.3534 30.4675 95.463 31.5118C96.5324 32.5462 97.7675 33.3404 99.1783 33.9042C100.584 34.4631 102.055 34.7426 103.597 34.7426C105.118 34.7426 106.584 34.4631 107.995 33.9042C109.405 33.3404 110.661 32.5462 111.76 31.5118C112.85 30.4676 113.678 29.286 114.245 27.9623Z" fill="#395721"/>
<path fill-rule="evenodd" clip-rule="evenodd" d="M43.8406 22.0388C43.5665 26.4883 39.87 30.0133 35.3516 30.0133C30.8332 30.0133 27.1367 26.4883 26.8626 22.0388H20.6769C20.8897 23.2457 21.7368 23.5178 22.8288 23.7914C24.6402 24.42 25.1603 25.9761 25.0061 27.8924C24.9617 28.4453 24.8397 28.674 24.5908 29.1453C23.5311 31.1517 25.2784 33.2756 27.3987 32.288C29.9564 31.1396 32.5359 32.2898 33.2532 34.4842C33.3965 34.9226 33.4045 35.3218 33.7214 35.6924C34.1095 36.1462 34.7342 36.3521 35.3533 36.3549C35.9826 36.3587 36.6124 36.1537 37.0069 35.6924C37.3239 35.3218 37.3318 34.9226 37.4751 34.4842C38.1924 32.2898 40.7719 31.1396 43.3295 32.288C45.4519 33.2766 47.2008 31.1474 46.1346 29.1394C45.8699 28.6407 45.7688 28.4815 45.7215 27.8822C45.5699 25.9705 46.0913 24.4189 47.8995 23.7913C48.9915 23.5177 49.8385 23.2456 50.0514 22.0388L43.8406 22.0388Z" fill="#BC5109"/>
<path fill-rule="evenodd" clip-rule="evenodd" d="M32.8152 17.1983C31.162 17.171 30.0155 15.9927 29.5756 14.4104L27.4764 7.58777C23.7058 9.8071 21.3585 13.8598 21.3882 18.2367C21.3893 18.4096 21.3939 18.5842 21.4016 18.7592C21.348 18.7546 21.2917 18.7545 21.2378 18.7545C20.2004 18.7545 19.3591 19.5958 19.3591 20.6332C19.3591 20.7925 19.3796 20.9517 19.4194 21.1059H51.0665C51.1063 20.9517 51.1267 20.7925 51.1267 20.6332C51.1267 19.5958 50.2855 18.7545 49.2481 18.7545C49.1942 18.7545 49.1379 18.7546 49.0843 18.7592C49.092 18.5842 49.0966 18.4096 49.0977 18.2367C49.1274 13.8598 46.7801 9.8071 43.0095 7.58777L40.9102 14.4104C40.4704 15.9927 39.3238 17.171 37.6707 17.1983H32.8152Z" fill="#BC5109"/>
<path fill-rule="evenodd" clip-rule="evenodd" d="M33.2636 13.4704C32.4993 13.5004 31.9891 13.1543 31.7329 12.4317L29.8651 5.96697C31.486 5.94864 32.767 5.32997 32.6789 3.64508H37.9107C37.8226 5.32996 39.1036 5.94863 40.7245 5.96697L38.8567 12.4317C38.6005 13.1543 38.0903 13.5004 37.326 13.4704H33.2636Z" fill="#BC5109"/>
</svg>
