<?xml version="1.0" encoding="UTF-8"?>
<svg id="Layer_1" data-name="Layer 1" xmlns="http://www.w3.org/2000/svg" version="1.1" viewBox="0 0 640 152">
  <defs>
    <style>
      .cls-1 {
        fill: #193e6e;
      }

      .cls-1, .cls-2, .cls-3 {
        stroke-width: 0px;
      }

      .cls-2 {
        fill: #3c592a;
      }

      .cls-2, .cls-3 {
        fill-rule: evenodd;
      }

      .cls-3 {
        fill: #bb5527;
      }
    </style>
  </defs>
  <g id="Layer_1-2" data-name="Layer 1-2">
    <g id="_237513344" data-name=" 237513344">
      <path id="_237517952" data-name=" 237517952" class="cls-1" d="M73.14,49.52v27.99c-3.5-3.9-7.01-6.75-10.49-8.56-3.48-1.82-7.22-2.74-11.19-2.74-7.36,0-13.32,2.52-17.87,7.54-4.55,5.04-6.83,11.58-6.83,19.67,0,7.54,2.32,13.78,6.97,18.74,4.64,4.97,10.56,7.45,17.74,7.45,3.96,0,7.71-.92,11.19-2.74,3.48-1.82,6.99-4.69,10.49-8.63v28.05c-4.07,1.95-8.1,3.44-12.14,4.42-4.01.99-8.08,1.47-12.17,1.47-5.15,0-9.88-.61-14.21-1.84-4.34-1.21-8.34-3.07-11.98-5.54-7.01-4.71-12.35-10.63-16.04-17.76-3.68-7.16-5.52-15.2-5.52-24.14,0-7.18,1.16-13.71,3.5-19.6,2.32-5.89,5.85-11.22,10.56-16.01,4.44-4.58,9.47-7.99,15.05-10.28,5.57-2.26,11.79-3.39,18.64-3.39,4.09,0,8.17.48,12.17,1.47,4.03.99,8.06,2.48,12.14,4.42h0Z"/>
      <polygon id="_154811320" data-name=" 154811320" class="cls-1" points="245.57 139.82 245.36 45.1 269.13 45.1 314.54 102.35 314.27 45.1 339.46 45.1 339.67 139.82 314.48 139.82 269.38 82.51 269.83 139.82 245.57 139.82"/>
      <polygon id="_154798792" data-name=" 154798792" class="cls-1" points="544.82 139.82 544.61 45.1 568.38 45.1 613.79 102.35 613.53 45.1 638.71 45.1 638.92 139.82 613.73 139.82 568.64 82.51 569.08 139.82 544.82 139.82"/>
      <polygon id="_237512912" data-name=" 237512912" class="cls-1" points="358.26 140.31 358.26 45.1 412.79 45.1 412.79 65.97 383.56 65.97 383.56 82.48 411.02 82.48 411.02 102.9 383.56 102.9 383.56 119.42 412.79 119.42 412.79 140.31 358.26 140.31"/>
      <path id="_237517664" data-name=" 237517664" class="cls-2" d="M457.23,73.99c5.06-5.05,11.47-7.59,19.2-7.59s13.97,2.54,19.1,7.61c5.14,5.09,7.69,11.44,7.69,19.02s-2.53,14.04-7.6,19.09c-5.06,5.03-11.47,7.54-19.2,7.54s-14.33-2.49-19.32-7.5c-4.99-4.99-7.47-11.37-7.47-19.13s2.53-13.99,7.6-19.04h0ZM525.32,112.53c2.6-6.05,3.92-12.56,3.92-19.51s-1.32-13.4-3.94-19.51c-2.65-6.12-6.43-11.54-11.38-16.28-4.95-4.75-10.66-8.39-17.19-10.98-6.5-2.56-13.25-3.85-20.27-3.85s-13.83,1.28-20.27,3.85c-6.48,2.58-12.14,6.24-17.05,10.98-5.09,4.8-8.94,10.24-11.59,16.31-2.62,6.1-3.94,12.58-3.94,19.48s1.32,13.34,3.94,19.44c2.65,6.12,6.5,11.56,11.59,16.35,4.9,4.75,10.57,8.39,17.05,10.98,6.45,2.56,13.2,3.85,20.27,3.85s13.71-1.28,20.18-3.85c6.48-2.58,12.24-6.24,17.28-10.98,5-4.8,8.8-10.21,11.4-16.28h0Z"/>
      <path id="_154810456" data-name=" 154810456" class="cls-3" d="M202.26,85.36c-1.26,20.42-18.22,36.59-38.95,36.59s-37.7-16.18-38.95-36.59h-28.38c.97,5.53,4.87,6.79,9.88,8.04,8.31,2.89,10.7,10.03,9.99,18.81-.2,2.54-.76,3.59-1.91,5.75-4.87,9.21,3.15,18.95,12.88,14.42,11.74-5.27,23.57,0,26.86,10.08.65,2.01.69,3.85,2.15,5.54,1.78,2.09,4.65,3.03,7.49,3.04,2.89.02,5.78-.93,7.59-3.04,1.46-1.7,1.49-3.53,2.15-5.54,3.29-10.07,15.13-15.35,26.86-10.08,9.74,4.54,17.76-5.23,12.88-14.45-1.21-2.29-1.68-3.02-1.89-5.77-.69-8.77,1.7-15.9,10-18.77,5.01-1.25,8.9-2.51,9.88-8.04h-28.51Z"/>
      <path id="_154815616" data-name=" 154815616" class="cls-3" d="M151.66,63.14c-7.58-.12-12.84-5.53-14.87-12.79l-9.63-31.31c-17.3,10.18-28.07,28.78-27.94,48.86,0,.79.02,1.6.06,2.4-.25-.02-.51-.02-.76-.02-4.76,0-8.62,3.86-8.62,8.62,0,.73.09,1.46.28,2.17h145.23c.18-.71.28-1.44.28-2.17,0-4.76-3.86-8.62-8.62-8.62-.25,0-.51,0-.76.02.04-.8.05-1.6.06-2.4.13-20.08-10.63-38.68-27.94-48.86l-9.63,31.31c-2.02,7.26-7.28,12.67-14.87,12.79h-22.29Z"/>
      <path id="_154799104" data-name=" 154799104" class="cls-3" d="M153.72,46.04c-3.51.14-5.85-1.45-7.02-4.76l-8.57-29.67c7.44-.09,13.32-2.93,12.91-10.66h24.01c-.4,7.73,5.47,10.57,12.91,10.66l-8.57,29.67c-1.18,3.32-3.52,4.9-7.02,4.76h-18.65Z"/>
    </g>
  </g>
</svg>