<svg width="32" height="32" viewBox="0 0 32 32" fill="none" xmlns="http://www.w3.org/2000/svg">
<path fill-rule="evenodd" clip-rule="evenodd" d="M24.8304 17C24.5603 21.4495 20.9169 24.9746 16.4636 24.9746C12.0102 24.9746 8.36685 21.4495 8.09673 17H2C2.2098 18.2069 3.04469 18.479 4.12093 18.7526C5.90628 19.3812 6.41893 20.9373 6.26691 22.8536C6.22318 23.4065 6.10292 23.6353 5.85757 24.1065C4.81317 26.1129 6.53531 28.2368 8.62515 27.2492C11.146 26.1008 13.6883 27.251 14.3954 29.4454C14.5366 29.8838 14.5444 30.283 14.8568 30.6537C15.2394 31.1075 15.855 31.3133 16.4652 31.3161C17.0855 31.3199 17.7063 31.1149 18.0951 30.6537C18.4075 30.283 18.4153 29.8838 18.5565 29.4454C19.2635 27.251 21.8059 26.1008 24.3267 27.2492C26.4186 28.2378 28.1423 26.1086 27.0914 24.1006C26.8305 23.602 26.7309 23.4427 26.6843 22.8434C26.5349 20.9317 27.0488 19.3801 28.8309 18.7526C29.9072 18.479 30.7421 18.2069 30.9519 17L24.8304 17Z" fill="#BC5109"/>
<path fill-rule="evenodd" clip-rule="evenodd" d="M13.2624 11.6105C11.6331 11.5833 10.503 10.4049 10.0695 8.82259L8.00043 2C4.2841 4.21934 1.97062 8.27199 1.99984 12.6489C2.00096 12.8218 2.0055 12.9964 2.01308 13.1714C1.9602 13.1668 1.90472 13.1667 1.85162 13.1667C0.829164 13.1667 0 14.008 0 15.0454C0 15.2047 0.0201529 15.364 0.0594209 15.5181H31.2511C31.2904 15.364 31.3105 15.2047 31.3105 15.0454C31.3105 14.008 30.4814 13.1667 29.4589 13.1667C29.4058 13.1667 29.3503 13.1668 29.2974 13.1714C29.305 12.9964 29.3096 12.8218 29.3107 12.6489C29.3399 8.27199 27.0264 4.21934 23.3101 2L21.241 8.82259C20.8075 10.4049 19.6774 11.5833 18.0481 11.6105H13.2624Z" fill="#BC5109"/>
<path fill-rule="evenodd" clip-rule="evenodd" d="M13.3496 9.82534C12.5963 9.85529 12.0935 9.50917 11.841 8.7866L10 2.32189C11.5976 2.30356 12.8602 1.68489 12.7734 0H17.9298C17.8431 1.68488 19.1056 2.30355 20.7032 2.32189L18.8622 8.7866C18.6098 9.50917 18.1069 9.85529 17.3536 9.82534H13.3496Z" fill="#BC5109"/>
</svg>
